<svg width="28" height="28" viewBox="0 0 28 28" fill="none" xmlns="http://www.w3.org/2000/svg">
<path fill-rule="evenodd" clip-rule="evenodd" d="M14 0C6.26801 0 0 6.26801 0 14C0 21.732 6.26801 28 14 28C21.732 28 28 21.732 28 14C28 6.26801 21.732 0 14 0ZM20.0303 10.8908H16.0757V9.75778H20.0303V10.8908ZM19.6816 11.8419C19.2057 11.6314 18.671 11.5257 18.0766 11.5257C17.0765 11.5257 16.2644 11.8384 15.6366 12.4595C15.0106 13.0823 14.6971 13.9771 14.6971 15.1438C14.6971 16.3877 15.043 17.2868 15.7393 17.8386C16.4321 18.3912 17.2337 18.6667 18.1425 18.6667C19.2426 18.6667 20.0987 18.3393 20.7098 17.6853C21.1014 17.273 21.3226 16.8667 21.3709 16.4683H19.549C19.4437 16.6658 19.3208 16.8199 19.1812 16.9317C18.9274 17.137 18.5964 17.2401 18.1916 17.2401C17.807 17.2401 17.4795 17.1552 17.2074 16.9863C16.7578 16.7151 16.5225 16.2413 16.4927 15.5665H21.4649C21.4728 14.9853 21.4535 14.5384 21.4052 14.23C21.3226 13.7025 21.1418 13.2382 20.8599 12.838C20.5509 12.3841 20.1584 12.0515 19.6816 11.8419ZM10.9927 9.33332C12.1183 9.34978 12.9147 9.67288 13.3844 10.3035C13.6663 10.6907 13.8077 11.1532 13.8077 11.6929C13.8077 12.2481 13.6663 12.6959 13.3809 13.0337C13.2211 13.2226 12.9867 13.3958 12.6768 13.5517C13.1474 13.7215 13.5021 13.9892 13.7436 14.3556C13.9824 14.7211 14.1027 15.1663 14.1027 15.6895C14.1027 16.2292 13.9657 16.7134 13.6909 17.1413C13.517 17.4245 13.2993 17.6636 13.0376 17.8576C12.7435 18.0802 12.3967 18.2318 11.9954 18.315C11.5942 18.3973 11.1604 18.4371 10.6916 18.4371H6.53325V9.33332H10.9927Z" fill="black"/>
<path fill-rule="evenodd" clip-rule="evenodd" d="M8.37256 10.9141H10.3815C10.8231 10.9141 11.1866 10.9617 11.4728 11.0561C11.803 11.193 11.9681 11.4728 11.9681 11.8981C11.9681 12.2792 11.8425 12.546 11.5931 12.6967C11.342 12.8474 11.0163 12.9228 10.6168 12.9228H8.37256V10.9141ZM17.0123 13.3628C17.2643 13.1064 17.6208 12.9782 18.0773 12.9782C18.4988 12.9782 18.8509 13.0986 19.1371 13.3403C19.4198 13.5837 19.5796 13.9371 19.6121 14.4048H16.5364C16.6014 13.9665 16.7603 13.6192 17.0123 13.3628ZM10.6449 14.4291H8.37256V16.8571H10.6133C11.0136 16.8571 11.3262 16.8034 11.5484 16.6968C11.9531 16.4976 12.1551 16.1199 12.1551 15.5604C12.1551 15.0857 11.9602 14.7609 11.5677 14.5833C11.3482 14.4845 11.04 14.4326 10.6449 14.4291Z" fill="black"/>
</svg>
