<svg width="28" height="28" viewBox="0 0 28 28" fill="none" xmlns="http://www.w3.org/2000/svg">
<path fill-rule="evenodd" clip-rule="evenodd" d="M14 0C6.26801 0 0 6.26801 0 14C0 21.732 6.26801 28 14 28C21.732 28 28 21.732 28 14C28 6.26801 21.732 0 14 0ZM21.4197 11.7939C21.4255 11.8088 21.4305 11.8237 21.4454 11.8694C21.4498 11.8857 21.4529 11.9029 21.4606 11.9451L21.4612 11.9485C21.4649 11.9747 21.4667 12.0019 21.4667 12.0294V16.4372C21.4667 16.4644 21.4649 16.4915 21.4563 16.5453C21.4531 16.5629 21.4499 16.5801 21.4355 16.6276C21.4305 16.6425 21.4255 16.6579 21.4056 16.7031C21.3993 16.7171 21.3925 16.7306 21.3668 16.7731C21.3586 16.7862 21.35 16.7985 21.3193 16.8378C21.3093 16.8491 21.2989 16.8608 21.2637 16.8957C21.2519 16.9061 21.2402 16.916 21.2284 16.9255C21.2189 16.9327 21.2099 16.94 21.19 16.9544L14.5783 21.3622C14.4738 21.4319 14.3536 21.4667 14.2333 21.4667C14.1131 21.4667 13.9928 21.4319 13.8884 21.3622L7.27713 16.9544C7.27558 16.9535 7.27412 16.9523 7.27047 16.9495C7.26559 16.9457 7.25681 16.9389 7.2387 16.9255C7.22649 16.916 7.21474 16.906 7.17857 16.8712C7.16772 16.8608 7.15732 16.8491 7.12613 16.8107C7.11709 16.7985 7.1085 16.7862 7.08228 16.7447C7.07459 16.7306 7.06781 16.7171 7.04747 16.6732C7.04114 16.6579 7.03617 16.6425 7.0217 16.5973C7.01718 16.5801 7.01401 16.5629 7.00588 16.5186C7.00226 16.4915 7 16.4644 7 16.4372V12.0294C7 12.0019 7.00226 11.9747 7.01085 11.9214C7.01401 11.9037 7.01718 11.8861 7.03119 11.8391C7.03617 11.8237 7.04114 11.8088 7.06103 11.7636C7.06781 11.7491 7.07459 11.7356 7.10036 11.6935C7.1085 11.6804 7.11709 11.6678 7.14783 11.6289C7.15732 11.6171 7.16772 11.6058 7.20344 11.571C7.21474 11.5606 7.22649 11.5507 7.2387 11.5412C7.24774 11.5339 7.25678 11.5267 7.27713 11.5122L13.8884 7.10443C14.0977 6.96519 14.3694 6.96519 14.5783 7.10443L21.19 11.5122C21.1915 11.5132 21.193 11.5143 21.1966 11.5172C21.2015 11.5209 21.2103 11.5277 21.2284 11.5412C21.2402 11.5507 21.2519 11.5606 21.2881 11.595C21.2989 11.6058 21.3093 11.6171 21.3405 11.6556C21.35 11.6678 21.3586 11.6804 21.3844 11.7225C21.3925 11.7356 21.3993 11.7491 21.4197 11.7939Z" fill="black"/>
<path fill-rule="evenodd" clip-rule="evenodd" d="M14.8548 8.78345L19.7256 12.0303L17.5501 13.4856L14.8548 11.6827V8.78345ZM14.2332 15.7039L12.0348 14.2333L14.2332 12.7627L16.4322 14.2333L14.2332 15.7039ZM14.8548 16.784V19.6832L19.7256 16.4363L17.5501 14.9815L14.8548 16.784ZM20.2234 15.2736L18.6682 14.2333L20.2234 13.1931V15.2736ZM8.74086 16.4363L13.6116 19.6832V16.784L10.9167 14.9815L8.74086 16.4363ZM8.24316 13.1931L9.79878 14.2333L8.24316 15.2736V13.1931ZM13.6116 11.6827V8.78345L8.74086 12.0303L10.9167 13.4856L13.6116 11.6827Z" fill="black"/>
</svg>
