<svg width="28" height="28" viewBox="0 0 28 28" fill="none" xmlns="http://www.w3.org/2000/svg">
<path d="M14.0254 0.10498C6.30869 0.10498 0.0512695 6.46793 0.0512695 14.3176C0.0512695 20.5973 4.05527 25.9249 9.6076 27.8042C10.306 27.9358 10.5624 27.4959 10.5624 27.1205C10.5624 26.7816 10.5494 25.662 10.5434 24.4743C6.6558 25.3341 5.83547 22.7974 5.83547 22.7974C5.1998 21.1546 4.2839 20.7178 4.2839 20.7178C3.01603 19.8356 4.37947 19.8538 4.37947 19.8538C5.78271 19.9538 6.52158 21.3184 6.52158 21.3184C7.76793 23.4912 9.79064 22.8631 10.5881 22.4999C10.7135 21.5815 11.0756 20.9541 11.4753 20.5994C8.37144 20.24 5.10863 19.0213 5.10863 13.5753C5.10863 12.0236 5.65451 10.7557 6.54843 9.76037C6.40334 9.40215 5.92502 7.95681 6.6838 5.99909C6.6838 5.99909 7.85725 5.6171 10.5277 7.45597C11.6423 7.14105 12.8378 6.98313 14.0254 6.97771C15.2129 6.98313 16.4093 7.14105 17.526 7.45597C20.1932 5.6171 21.3651 5.99909 21.3651 5.99909C22.1257 7.95681 21.6471 9.40215 21.502 9.76037C22.398 10.7557 22.9402 12.0236 22.9402 13.5753C22.9402 19.0342 19.6712 20.2362 16.5595 20.5881C17.0607 21.0291 17.5073 21.8941 17.5073 23.2201C17.5073 25.1216 17.4911 26.6521 17.4911 27.1205C17.4911 27.4987 17.7426 27.9419 18.451 27.8023C24.0003 25.9209 27.9992 20.5951 27.9992 14.3176C27.9992 6.46793 21.7427 0.10498 14.0254 0.10498Z" fill="black"/>
<path d="M5.34397 20.5112C5.31319 20.5821 5.20397 20.603 5.10447 20.5545C5.00311 20.5082 4.94619 20.4119 4.97905 20.3411C5.00913 20.2683 5.11858 20.2483 5.21971 20.2966C5.32129 20.3432 5.37914 20.4404 5.34397 20.5112Z" fill="black"/>
<path d="M5.90988 21.1534C5.84323 21.2162 5.71295 21.187 5.62456 21.0877C5.53315 20.9886 5.51603 20.8561 5.5836 20.7923C5.65233 20.7295 5.77867 20.7589 5.87031 20.858C5.96171 20.9583 5.97953 21.0898 5.90988 21.1534Z" fill="black"/>
<path d="M6.46111 21.972C6.37549 22.0325 6.23549 21.9758 6.14895 21.8494C6.06333 21.723 6.06333 21.5714 6.1508 21.5107C6.23757 21.45 6.37549 21.5046 6.46319 21.63C6.54858 21.7583 6.54858 21.9101 6.46111 21.972Z" fill="black"/>
<path d="M7.21578 22.7628C7.13918 22.8487 6.97604 22.8256 6.85663 22.7084C6.73445 22.5938 6.70044 22.4312 6.77726 22.3453C6.85478 22.2591 7.01885 22.2834 7.13918 22.3996C7.26044 22.514 7.29746 22.6778 7.21578 22.7628Z" fill="black"/>
<path d="M8.25739 23.222C8.2236 23.3334 8.06648 23.384 7.9082 23.3367C7.75015 23.288 7.64671 23.1576 7.67864 23.0451C7.7115 22.933 7.86932 22.8803 8.02876 22.9309C8.18658 22.9794 8.29025 23.1088 8.25739 23.222Z" fill="black"/>
<path d="M9.40079 23.3073C9.40472 23.4245 9.27051 23.5217 9.10436 23.5236C8.93728 23.5276 8.80214 23.4327 8.80029 23.3174C8.80029 23.199 8.9315 23.1028 9.09857 23.0999C9.26472 23.0966 9.40079 23.1908 9.40079 23.3073Z" fill="black"/>
<path d="M10.4649 23.123C10.4848 23.2373 10.3694 23.3548 10.2044 23.3859C10.0422 23.4162 9.89198 23.3456 9.87139 23.2322C9.85125 23.115 9.96881 22.9975 10.1308 22.9672C10.296 22.938 10.4439 23.0067 10.4649 23.123Z" fill="black"/>
</svg>
