<svg width="28" height="28" viewBox="0 0 28 28" fill="none" xmlns="http://www.w3.org/2000/svg">
<path fill-rule="evenodd" clip-rule="evenodd" d="M0 14C0 6.26801 6.26801 0 14 0C21.732 0 28 6.26801 28 14C28 21.732 21.732 28 14 28C6.26801 28 0 21.732 0 14ZM11.7486 10.2298L7.26627 8.01517C7.22792 7.9962 7.19136 7.98725 7.15833 7.98725C7.11127 7.98725 7.07148 8.00554 7.04347 8.03891C7.01607 8.07155 7 8.11874 7 8.17777V17.6852C7 17.847 7.11983 18.0386 7.26627 18.1109L11.4085 20.1575C11.466 20.186 11.5208 20.1995 11.5704 20.1995C11.71 20.1995 11.8079 20.0927 11.8079 19.9136V10.3246C11.8079 10.2845 11.7849 10.2477 11.7486 10.2298ZM21.0237 20.1545L16.9987 18.1658L21.4231 11.0612V19.9105C21.4231 20.1533 21.2434 20.263 21.0237 20.1545ZM12.2327 10.9415V15.8139L16.6157 17.9795L12.2327 10.9415ZM16.7488 7.94941L21.3177 10.2068C21.3746 10.2349 21.3948 10.3052 21.3615 10.3587L16.8651 17.5788L13.7215 12.5309L16.5376 8.00888C16.5676 7.96086 16.6229 7.93329 16.6785 7.93329C16.6799 7.93329 16.6814 7.93373 16.6829 7.93378C16.7055 7.93437 16.728 7.93914 16.7488 7.94941Z" fill="black"/>
</svg>
