<svg width="28" height="28" viewBox="0 0 28 28" fill="none" xmlns="http://www.w3.org/2000/svg">
<path fill-rule="evenodd" clip-rule="evenodd" d="M14 0C6.26801 0 0 6.26801 0 14C0 21.732 6.26801 28 14 28C21.732 28 28 21.732 28 14C28 6.26801 21.732 0 14 0ZM9.79286 7C9.83429 7.03286 9.86714 7.03286 9.9 7.02857C10.07 7.01429 10.2157 7.05572 10.31 7.21143C10.3267 7.23844 10.3433 7.26545 10.36 7.29246C10.5549 7.60837 10.7502 7.92484 10.9357 8.24859C11.0701 8.48267 11.1982 8.72055 11.3265 8.95866C11.4206 9.13327 11.5148 9.30801 11.6115 9.48147C11.6489 9.55178 11.6957 9.618 11.7425 9.68424C11.7689 9.72164 11.7953 9.75904 11.82 9.79719C11.8797 9.89206 11.9367 9.98951 11.9924 10.0846L12.0015 10.1001C12.1215 10.3272 12.1158 10.5558 11.9372 10.7372C11.7492 10.9294 11.5472 11.1115 11.3455 11.2932C11.2744 11.3573 11.2033 11.4213 11.1329 11.4858C11.0453 11.5661 10.9565 11.6452 10.8677 11.7242C10.7276 11.8489 10.5875 11.9735 10.4529 12.1029C10.2814 12.2687 10.2372 12.4758 10.3529 12.6944C10.3636 12.7144 10.3743 12.7345 10.385 12.7545C10.5528 13.0688 10.7203 13.3826 10.9043 13.6901C11.63 14.9001 12.5572 15.9287 13.7286 16.7216C14.1801 17.0287 14.6501 17.3102 15.1244 17.5788C15.5715 17.8316 15.7458 17.7888 16.093 17.4016C16.2763 17.198 16.456 16.9925 16.6359 16.7868C16.7728 16.6302 16.9098 16.4735 17.0487 16.3173C17.1258 16.2302 17.2187 16.153 17.3087 16.0787C17.4916 15.9244 17.6916 15.9073 17.9016 16.013C17.9147 16.0194 17.9281 16.0257 17.9415 16.032C17.9878 16.0537 18.0346 16.0756 18.0744 16.1044C18.4469 16.3709 18.8488 16.5851 19.2502 16.7989C19.4492 16.9049 19.648 17.0108 19.843 17.123C20.0441 17.2386 20.2417 17.3593 20.4388 17.4798C20.5511 17.5485 20.6633 17.617 20.7759 17.6845C20.943 17.783 21.0102 17.9273 20.9988 18.1259C20.9673 18.6845 20.8745 19.2331 20.5502 19.7045C20.4145 19.9002 20.2216 20.0716 20.0273 20.2102C19.4887 20.5874 18.8873 20.8202 18.2473 20.9631C17.6658 21.0931 17.0858 21.046 16.5287 20.8717C15.453 20.5402 14.3929 20.1602 13.4172 19.5845C12.5315 19.0602 11.7257 18.4273 10.98 17.7202C10.0357 16.8216 9.19285 15.8416 8.51141 14.7258C8.06711 14.0015 7.74997 13.2215 7.46282 12.4258C7.28853 11.9458 7.1171 11.4701 7.03995 10.9615C6.95138 10.3858 7.01281 9.83148 7.1971 9.28575C7.36282 8.79289 7.56996 8.32145 7.88282 7.90002C8.12854 7.57287 8.43569 7.33286 8.83284 7.22572C9.05724 7.16635 9.28306 7.11548 9.5088 7.06464C9.60353 7.0433 9.69826 7.02196 9.79286 7Z" fill="black"/>
</svg>
